<svg xmlns="http://www.w3.org/2000/svg" xmlns:xlink="http://www.w3.org/1999/xlink" width="375" zoomAndPan="magnify" viewBox="0 0 375 374.999991" height="374.999991" preserveAspectRatio="xMidYMid meet" version="1.0"><defs><g/><clipPath id="id1"><path d="M 25.417969 43 L 349.417969 43 L 349.417969 332 L 25.417969 332 Z M 25.417969 43 " clip-rule="nonzero"/></clipPath><clipPath id="id2"><path d="M 82.179688 32 L 310.054688 32 L 310.054688 275.777344 L 82.179688 275.777344 Z M 82.179688 32 " clip-rule="nonzero"/></clipPath></defs><path fill="rgb(0%, 0%, 0%)" d="M 187.5 0 C 83.945312 0 0 83.945312 0 187.5 C 0 291.054688 83.945312 375 187.5 375 C 291.054688 375 375 291.054688 375 187.5 C 375 83.945312 291.054688 0 187.5 0 " fill-opacity="1" fill-rule="nonzero"/><g clip-path="url(#id1)"><path fill="rgb(12.548828%, 0%, 6.669617%)" d="M 291.59375 136.855469 C 288.246094 135.703125 284.773438 134.609375 281.1875 133.574219 C 281.78125 131.171875 282.324219 128.800781 282.804688 126.472656 C 290.671875 88.207031 285.53125 57.378906 267.9375 47.226562 C 251.0625 37.496094 223.476562 47.644531 195.613281 71.902344 C 192.9375 74.234375 190.246094 76.703125 187.570312 79.292969 C 185.777344 77.582031 183.996094 75.925781 182.214844 74.34375 C 153.011719 48.40625 123.742188 37.472656 106.167969 47.652344 C 89.316406 57.410156 84.324219 86.390625 91.417969 122.65625 C 92.105469 126.160156 92.90625 129.738281 93.808594 133.375 C 89.667969 134.550781 85.667969 135.804688 81.84375 137.140625 C 47.609375 149.078125 25.746094 167.796875 25.746094 187.210938 C 25.746094 207.25 49.21875 227.371094 84.871094 239.5625 C 87.6875 240.523438 90.605469 241.433594 93.613281 242.292969 C 92.636719 246.222656 91.789062 250.078125 91.074219 253.84375 C 84.3125 289.480469 89.59375 317.773438 106.402344 327.464844 C 123.761719 337.488281 152.898438 327.1875 181.265625 302.382812 C 183.515625 300.421875 185.761719 298.339844 188.011719 296.164062 C 190.941406 298.96875 193.859375 301.636719 196.75 304.136719 C 224.234375 327.792969 251.378906 337.347656 268.164062 327.628906 C 285.507812 317.585938 291.152344 287.179688 283.824219 250.203125 C 283.269531 247.375 282.613281 244.492188 281.894531 241.5625 C 283.941406 240.953125 285.949219 240.320312 287.90625 239.675781 C 324.976562 227.382812 349.089844 207.53125 349.089844 187.210938 C 349.089844 167.722656 326.515625 148.882812 291.59375 136.855469 Z M 283.5625 226.5625 C 281.792969 227.140625 279.972656 227.710938 278.128906 228.253906 C 274.039062 215.300781 268.519531 201.515625 261.746094 187.273438 C 268.203125 173.371094 273.507812 159.765625 277.484375 146.890625 C 280.792969 147.847656 284.003906 148.859375 287.097656 149.921875 C 317.019531 160.230469 335.269531 175.46875 335.269531 187.210938 C 335.269531 199.707031 315.566406 215.945312 283.5625 226.5625 Z M 270.273438 252.882812 C 273.519531 269.234375 273.972656 284.019531 271.828125 295.582031 C 269.90625 305.972656 266.03125 312.894531 261.242188 315.664062 C 251.050781 321.566406 229.261719 313.894531 205.769531 293.664062 C 203.066406 291.335938 200.351562 288.859375 197.636719 286.246094 C 206.742188 276.273438 215.847656 264.6875 224.742188 251.808594 C 240.363281 250.433594 255.128906 248.15625 268.53125 245.0625 C 269.1875 247.726562 269.769531 250.332031 270.273438 252.882812 Z M 135.984375 314.640625 C 126.03125 318.164062 118.101562 318.265625 113.308594 315.5 C 103.109375 309.609375 98.867188 286.890625 104.652344 256.421875 C 105.316406 252.933594 106.105469 249.34375 107.011719 245.679688 C 120.257812 248.613281 134.917969 250.722656 150.585938 251.984375 C 159.535156 264.585938 168.90625 276.160156 178.339844 286.296875 C 176.28125 288.292969 174.222656 290.1875 172.175781 291.96875 C 159.636719 302.949219 147.066406 310.734375 135.984375 314.640625 Z M 89.34375 226.484375 C 73.578125 221.089844 60.558594 214.089844 51.632812 206.429688 C 43.613281 199.566406 39.566406 192.746094 39.566406 187.210938 C 39.566406 175.433594 57.117188 160.402344 86.394531 150.191406 C 89.945312 148.949219 93.664062 147.78125 97.523438 146.683594 C 101.570312 159.851562 106.878906 173.625 113.28125 187.539062 C 106.792969 201.664062 101.410156 215.65625 97.324219 228.988281 C 94.574219 228.191406 91.910156 227.355469 89.34375 226.484375 Z M 104.980469 120.003906 C 98.902344 88.933594 102.9375 65.496094 113.09375 59.613281 C 123.910156 53.347656 147.832031 62.28125 173.035156 84.675781 C 174.652344 86.109375 176.269531 87.605469 177.898438 89.15625 C 168.503906 99.25 159.21875 110.738281 150.347656 123.261719 C 135.140625 124.671875 120.585938 126.9375 107.203125 129.96875 C 106.359375 126.582031 105.617188 123.257812 104.980469 120.003906 Z M 244.445312 154.460938 C 241.25 148.933594 237.964844 143.535156 234.617188 138.28125 C 244.9375 139.585938 254.816406 141.320312 264.097656 143.4375 C 261.320312 152.375 257.847656 161.71875 253.753906 171.300781 C 250.824219 165.722656 247.714844 160.105469 244.445312 154.460938 Z M 187.570312 99.035156 C 193.949219 105.941406 200.328125 113.648438 206.605469 122.015625 C 200.277344 121.71875 193.871094 121.5625 187.417969 121.5625 C 181.027344 121.5625 174.675781 121.714844 168.382812 122.007812 C 174.660156 113.71875 181.101562 106.019531 187.570312 99.035156 Z M 130.332031 154.558594 C 127.136719 160.101562 124.089844 165.6875 121.203125 171.285156 C 117.183594 161.742188 113.738281 152.355469 110.929688 143.292969 C 120.15625 141.226562 129.992188 139.539062 140.242188 138.257812 C 136.847656 143.558594 133.535156 148.996094 130.332031 154.554688 Z M 140.539062 237.136719 C 129.949219 235.960938 119.960938 234.359375 110.738281 232.347656 C 113.59375 223.125 117.109375 213.542969 121.21875 203.789062 C 124.113281 209.386719 127.171875 214.972656 130.386719 220.53125 C 133.660156 226.195312 137.054688 231.730469 140.539062 237.136719 Z M 187.949219 276.351562 C 181.40625 269.285156 174.875 261.464844 168.5 253.058594 C 174.6875 253.300781 181.003906 253.425781 187.417969 253.425781 C 194.011719 253.425781 200.527344 253.273438 206.933594 252.996094 C 200.644531 261.550781 194.277344 269.386719 187.949219 276.351562 Z M 253.878906 203.296875 C 258.199219 213.152344 261.851562 222.679688 264.742188 231.753906 C 255.371094 233.890625 245.242188 235.609375 234.582031 236.898438 C 237.941406 231.578125 241.25 226.082031 244.507812 220.433594 C 247.804688 214.71875 250.925781 208.996094 253.878906 203.296875 Z M 232.535156 213.53125 C 227.484375 222.300781 222.292969 230.667969 217.023438 238.566406 C 207.4375 239.25 197.523438 239.601562 187.417969 239.601562 C 177.351562 239.601562 167.5625 239.296875 158.140625 238.679688 C 152.660156 230.679688 147.359375 222.289062 142.339844 213.609375 C 137.332031 204.953125 132.722656 196.21875 128.542969 187.539062 C 132.71875 178.84375 137.320312 170.097656 142.296875 161.460938 C 147.289062 152.796875 152.546875 144.445312 157.976562 136.488281 C 167.589844 135.761719 177.453125 135.382812 187.417969 135.382812 C 197.433594 135.382812 207.300781 135.765625 216.910156 136.496094 C 222.265625 144.394531 227.484375 152.722656 232.496094 161.386719 C 237.5625 170.148438 242.222656 178.832031 246.429688 187.347656 C 242.234375 196.003906 237.585938 204.773438 232.535156 213.53125 Z M 261.03125 59.199219 C 271.867188 65.445312 276.070312 90.640625 269.265625 123.679688 C 268.835938 125.785156 268.34375 127.933594 267.8125 130.109375 C 254.398438 127.011719 239.835938 124.707031 224.589844 123.277344 C 215.699219 110.617188 206.492188 99.109375 197.246094 89.148438 C 199.734375 86.757812 202.222656 84.476562 204.683594 82.324219 C 228.554688 61.539062 250.875 53.332031 261.03125 59.199219 Z M 187.417969 158.316406 C 203.359375 158.316406 216.292969 171.246094 216.292969 187.207031 C 216.292969 203.152344 203.359375 216.09375 187.417969 216.09375 C 171.480469 216.09375 158.546875 203.152344 158.546875 187.207031 C 158.546875 171.246094 171.480469 158.316406 187.417969 158.316406 Z M 187.417969 158.316406 " fill-opacity="1" fill-rule="nonzero"/></g><path fill="rgb(92.549133%, 15.689087%, 56.469727%)" d="M 233.820312 123.421875 L 208.402344 123.421875 C 205.601562 123.421875 203.335938 125.6875 203.335938 128.496094 C 203.335938 131.304688 205.601562 133.574219 208.402344 133.574219 L 233.820312 133.574219 C 236.632812 133.574219 238.898438 131.304688 238.898438 128.496094 C 238.898438 125.6875 236.632812 123.421875 233.820312 123.421875 " fill-opacity="1" fill-rule="nonzero"/><path fill="rgb(92.549133%, 15.689087%, 56.469727%)" d="M 198.242188 92.953125 L 137.269531 92.953125 C 134.457031 92.953125 132.179688 95.222656 132.179688 98.03125 C 132.179688 100.839844 134.457031 103.105469 137.269531 103.105469 L 198.242188 103.105469 C 201.054688 103.105469 203.335938 100.839844 203.335938 98.03125 C 203.335938 95.222656 201.054688 92.953125 198.242188 92.953125 " fill-opacity="1" fill-rule="nonzero"/><path fill="rgb(92.549133%, 15.689087%, 56.469727%)" d="M 137.269531 82.792969 L 198.242188 82.792969 C 201.054688 82.792969 203.335938 80.523438 203.335938 77.714844 C 203.335938 74.90625 201.054688 72.640625 198.242188 72.640625 L 137.269531 72.640625 C 134.457031 72.640625 132.179688 74.90625 132.179688 77.714844 C 132.179688 80.523438 134.457031 82.792969 137.269531 82.792969 " fill-opacity="1" fill-rule="nonzero"/><path fill="rgb(92.549133%, 15.689087%, 56.469727%)" d="M 212.570312 42.160156 C 215.417969 42.160156 217.648438 39.882812 217.648438 37.085938 C 217.648438 34.300781 215.417969 32.007812 212.570312 32.007812 C 209.785156 32.007812 207.492188 34.300781 207.492188 37.085938 C 207.492188 39.882812 209.785156 42.160156 212.570312 42.160156 " fill-opacity="1" fill-rule="nonzero"/><path fill="rgb(92.549133%, 15.689087%, 56.469727%)" d="M 147.429688 113.269531 L 137.269531 113.269531 C 134.457031 113.269531 132.179688 115.535156 132.179688 118.34375 C 132.179688 121.144531 134.457031 123.421875 137.269531 123.421875 L 147.429688 123.421875 C 150.238281 123.421875 152.507812 121.144531 152.507812 118.34375 C 152.507812 115.535156 150.238281 113.269531 147.429688 113.269531 " fill-opacity="1" fill-rule="nonzero"/><g clip-path="url(#id2)"><path fill="rgb(92.549133%, 15.689087%, 56.469727%)" d="M 299.875 260.539062 C 299.875 263.335938 297.605469 265.613281 294.792969 265.613281 L 213.492188 265.613281 C 210.679688 265.613281 208.402344 263.335938 208.402344 260.539062 L 208.402344 213.851562 C 208.402344 212.011719 209.9375 210.464844 212.015625 209.945312 C 212.488281 209.839844 212.972656 209.757812 213.492188 209.757812 L 294.792969 209.757812 C 297.605469 209.757812 299.875 211.585938 299.875 213.851562 Z M 198.894531 209.757812 C 198.480469 211.054688 198.242188 212.425781 198.242188 213.851562 L 198.242188 219.910156 L 163.207031 219.910156 L 164.734375 204.679688 L 167.273438 179.277344 L 198.726562 179.277344 L 201.265625 204.679688 L 201.324219 205.296875 C 200.25 206.617188 199.425781 208.128906 198.894531 209.757812 Z M 96.613281 265.613281 L 96.613281 250.386719 L 198.242188 250.386719 L 198.242188 260.539062 C 198.242188 262.320312 198.574219 264.019531 199.128906 265.613281 Z M 104.480469 218.515625 C 105.09375 216.34375 107.101562 214.832031 109.359375 214.832031 L 153.5 214.832031 L 152.53125 224.476562 C 152.390625 225.90625 152.863281 227.332031 153.828125 228.394531 C 154.785156 229.457031 156.15625 230.058594 157.597656 230.058594 L 198.242188 230.058594 L 198.242188 240.222656 L 98.265625 240.222656 Z M 290.199219 77.714844 L 294.261719 118.34375 L 280.5 118.34375 L 277.5 77.714844 Z M 294.792969 199.59375 L 213.492188 199.59375 C 212.640625 199.59375 211.804688 199.675781 211 199.804688 L 208.945312 179.277344 L 268.570312 179.277344 C 276.957031 179.277344 283.820312 172.421875 283.820312 164.050781 C 283.820312 163.746094 283.820312 163.332031 283.773438 162.871094 L 281.246094 128.496094 L 299.875 128.496094 C 301.316406 128.496094 302.683594 127.894531 303.640625 126.832031 C 304.609375 125.769531 305.082031 124.34375 304.929688 122.914062 L 299.851562 72.132812 C 299.601562 69.535156 297.40625 67.5625 294.792969 67.5625 L 276.757812 67.5625 L 275.1875 46.070312 C 274.570312 38.207031 267.863281 32.007812 259.984375 32.007812 L 232.898438 32.007812 C 230.101562 32.007812 227.820312 34.300781 227.820312 37.085938 C 227.820312 39.882812 230.101562 42.160156 232.898438 42.160156 C 232.945312 42.160156 232.945312 42.160156 233.003906 42.160156 L 259.984375 42.160156 C 262.628906 42.160156 264.816406 44.191406 265.015625 46.835938 L 266.609375 68.402344 L 270.945312 127.070312 L 273.664062 163.636719 C 273.664062 163.746094 273.664062 163.839844 273.664062 164.050781 C 273.664062 166.835938 271.371094 169.125 268.570312 169.125 L 97.425781 169.125 C 94.628906 169.125 92.347656 166.835938 92.347656 164.050781 C 92.347656 163.945312 92.347656 163.945312 92.347656 163.898438 C 92.347656 163.898438 92.347656 163.898438 92.347656 163.839844 L 100.925781 46.835938 C 101.136719 44.191406 103.367188 42.160156 106.015625 42.160156 L 192.242188 42.160156 C 195.089844 42.160156 197.332031 39.882812 197.332031 37.085938 C 197.332031 34.300781 195.089844 32.007812 192.242188 32.007812 L 106.015625 32.007812 C 98.136719 32.007812 91.425781 38.207031 90.8125 46.070312 L 82.226562 162.871094 C 82.179688 163.390625 82.179688 163.746094 82.179688 164.050781 C 82.179688 172.421875 89.042969 179.277344 97.425781 179.277344 L 157.054688 179.277344 L 154.515625 204.679688 L 109.359375 204.679688 C 102.589844 204.679688 96.566406 209.214844 94.699219 215.71875 L 86.644531 243.90625 C 86.621094 243.964844 86.632812 244.023438 86.621094 244.070312 C 86.5625 244.296875 86.523438 244.53125 86.5 244.769531 C 86.488281 244.910156 86.464844 245.039062 86.453125 245.179688 C 86.453125 245.226562 86.441406 245.265625 86.441406 245.300781 L 86.441406 270.691406 C 86.441406 273.5 88.722656 275.765625 91.535156 275.765625 L 294.792969 275.765625 C 303.203125 275.765625 310.042969 268.941406 310.042969 260.539062 L 310.042969 213.851562 C 310.042969 205.992188 303.203125 199.59375 294.792969 199.59375 " fill-opacity="1" fill-rule="nonzero"/></g><path fill="rgb(92.549133%, 15.689087%, 56.469727%)" d="M 284.636719 245.300781 C 281.835938 245.300781 279.558594 247.589844 279.558594 250.386719 C 279.558594 253.171875 281.835938 255.460938 284.636719 255.460938 C 287.433594 255.460938 289.714844 253.171875 289.714844 250.386719 C 289.714844 247.589844 287.433594 245.300781 284.636719 245.300781 " fill-opacity="1" fill-rule="nonzero"/><path fill="rgb(92.549133%, 15.689087%, 56.469727%)" d="M 223.652344 245.300781 C 220.863281 245.300781 218.570312 247.589844 218.570312 250.386719 C 218.570312 253.171875 220.863281 255.460938 223.652344 255.460938 C 226.449219 255.460938 228.742188 253.171875 228.742188 250.386719 C 228.742188 247.589844 226.449219 245.300781 223.652344 245.300781 " fill-opacity="1" fill-rule="nonzero"/><path fill="rgb(92.549133%, 15.689087%, 56.469727%)" d="M 233.820312 219.910156 L 223.652344 219.910156 C 220.839844 219.910156 218.570312 222.175781 218.570312 224.984375 C 218.570312 227.792969 220.839844 230.058594 223.652344 230.058594 L 233.820312 230.058594 C 236.632812 230.058594 238.898438 227.792969 238.898438 224.984375 C 238.898438 222.175781 236.632812 219.910156 233.820312 219.910156 " fill-opacity="1" fill-rule="nonzero"/><path fill="rgb(92.549133%, 15.689087%, 56.469727%)" d="M 264.308594 245.300781 C 261.507812 245.300781 259.226562 247.589844 259.226562 250.386719 C 259.226562 253.171875 261.507812 255.460938 264.308594 255.460938 C 267.105469 255.460938 269.386719 253.171875 269.386719 250.386719 C 269.386719 247.589844 267.105469 245.300781 264.308594 245.300781 " fill-opacity="1" fill-rule="nonzero"/><path fill="rgb(92.549133%, 15.689087%, 56.469727%)" d="M 284.636719 219.910156 C 281.835938 219.910156 279.558594 222.199219 279.558594 224.984375 C 279.558594 227.78125 281.835938 230.058594 284.636719 230.058594 C 287.433594 230.058594 289.714844 227.78125 289.714844 224.984375 C 289.714844 222.199219 287.433594 219.910156 284.636719 219.910156 " fill-opacity="1" fill-rule="nonzero"/><path fill="rgb(92.549133%, 15.689087%, 56.469727%)" d="M 243.980469 245.300781 C 241.191406 245.300781 238.898438 247.589844 238.898438 250.386719 C 238.898438 253.171875 241.191406 255.460938 243.980469 255.460938 C 246.777344 255.460938 249.070312 253.171875 249.070312 250.386719 C 249.070312 247.589844 246.777344 245.300781 243.980469 245.300781 " fill-opacity="1" fill-rule="nonzero"/><path fill="rgb(92.549133%, 15.689087%, 56.469727%)" d="M 121.75 62.476562 L 244.25 62.476562 L 248.773438 143.734375 L 117.222656 143.734375 Z M 111.863281 57.117188 L 106.78125 148.527344 C 106.699219 149.921875 107.207031 151.289062 108.164062 152.304688 C 109.121094 153.320312 110.457031 153.886719 111.851562 153.886719 L 254.136719 153.886719 C 255.542969 153.886719 256.878906 153.320312 257.835938 152.304688 C 258.792969 151.289062 259.300781 149.921875 259.214844 148.527344 L 254.136719 57.117188 C 253.984375 54.425781 251.761719 52.324219 249.070312 52.324219 L 116.941406 52.324219 C 114.246094 52.324219 112.015625 54.425781 111.863281 57.117188 " fill-opacity="1" fill-rule="nonzero"/><g fill="rgb(62.348938%, 24.708557%, 45.098877%)" fill-opacity="1"><g transform="translate(115.644535, 353.105452)"><g><path d="M 30.691406 -59.171875 L 5.996094 -59.171875 L 5.996094 0 L 18.304688 0 L 18.304688 -24.222656 L 30.691406 -24.222656 C 35.582031 -24.222656 39.761719 -25.878906 43.15625 -29.191406 C 46.546875 -32.503906 48.285156 -36.609375 48.285156 -41.5 C 48.285156 -46.390625 46.546875 -50.492188 43.15625 -53.964844 C 39.683594 -57.4375 35.582031 -59.171875 30.691406 -59.171875 Z M 28.796875 -34.476562 L 18.304688 -34.476562 L 18.304688 -48.285156 L 28.796875 -48.285156 C 31.007812 -48.285156 32.820312 -47.574219 34.242188 -46.3125 C 35.660156 -45.050781 36.449219 -43.394531 36.449219 -41.339844 C 36.449219 -39.289062 35.660156 -37.632812 34.242188 -36.371094 C 32.820312 -35.109375 31.007812 -34.476562 28.796875 -34.476562 Z M 28.796875 -34.476562 "/></g></g></g><g fill="rgb(62.348938%, 24.708557%, 45.098877%)" fill-opacity="1"><g transform="translate(164.398357, 353.105452)"><g><path d="M 5.996094 0 L 25.089844 0 C 34.320312 0 41.65625 -2.761719 47.101562 -8.441406 C 52.464844 -14.042969 55.226562 -21.066406 55.226562 -29.585938 C 55.226562 -38.027344 52.464844 -45.050781 47.101562 -50.730469 C 41.65625 -56.332031 34.320312 -59.171875 25.089844 -59.171875 L 5.996094 -59.171875 Z M 18.226562 -10.964844 L 18.226562 -48.207031 L 24.535156 -48.207031 C 30.058594 -48.207031 34.476562 -46.46875 37.632812 -43 C 40.789062 -39.527344 42.445312 -35.03125 42.445312 -29.585938 C 42.445312 -24.0625 40.789062 -19.644531 37.632812 -16.171875 C 34.476562 -12.703125 30.058594 -10.964844 24.535156 -10.964844 Z M 18.226562 -10.964844 "/></g></g></g><g fill="rgb(62.348938%, 24.708557%, 45.098877%)" fill-opacity="1"><g transform="translate(223.486734, 353.105452)"><g><path d="M 46.390625 -59.171875 L 29.585938 -13.097656 L 12.703125 -59.171875 L -1.105469 -59.171875 L 22.644531 0 L 36.449219 0 L 60.199219 -59.171875 Z M 46.390625 -59.171875 "/></g></g></g><path stroke-linecap="butt" transform="matrix(0.411688, 0, 0, 0.411688, 46.043526, 278.815059)" fill="none" stroke-linejoin="miter" d="M 236.145546 29.265448 L 176.159983 29.265448 L 176.159983 172.995489 L 206.057881 172.995489 L 206.057881 114.186485 L 236.145546 114.186485 C 248.025003 114.186485 258.177574 110.16341 266.460933 102.069818 C 274.69685 94.023669 278.900204 84.060865 278.900204 72.219362 C 278.900204 60.339906 274.69685 50.367614 266.460933 41.903975 C 257.987806 33.47829 248.025003 29.265448 236.145546 29.265448 Z M 231.553168 89.251012 L 206.057881 89.251012 L 206.057881 55.700086 L 231.553168 55.700086 C 236.933082 55.700086 241.335692 57.43646 244.798952 60.520185 C 248.214771 63.565956 250.131424 67.589031 250.131424 72.598898 C 250.131424 77.551834 248.214771 81.574909 244.798952 84.668122 C 241.335692 87.704405 236.933082 89.251012 231.553168 89.251012 Z M 294.584503 172.995489 L 341.001678 172.995489 C 363.403752 172.995489 381.232426 166.306178 394.430768 152.510068 C 407.477296 138.894237 414.176095 121.815145 414.176095 101.130468 C 414.176095 80.645047 407.477296 63.565956 394.430768 49.760357 C 381.232426 36.144526 363.403752 29.265448 341.001678 29.265448 L 294.584503 29.265448 Z M 324.292633 146.380571 L 324.292633 55.889853 L 339.644839 55.889853 C 353.070902 55.889853 363.783288 60.102696 371.45939 68.575823 C 379.126004 76.992019 383.149079 87.894173 383.149079 101.130468 C 383.149079 114.56602 379.126004 125.278405 371.45939 133.694602 C 363.783288 142.167729 353.070902 146.380571 339.644839 146.380571 Z M 536.225178 29.265448 L 495.425127 141.180937 L 454.397355 29.265448 L 420.893871 29.265448 L 478.583245 172.995489 L 512.086729 172.995489 L 569.766615 29.265448 Z M 536.225178 29.265448 " stroke="rgb(97.24884%, 66.268921%, 67.83905%)" stroke-width="7.186751" stroke-opacity="1" stroke-miterlimit="4"/></svg>